# xmcd CD database file generated by OrangeCD 5.2
#
# Track frame offsets:
#	150
#	16240
#	36927
#	47527
#	67410
#	82645
#	99395
#	115692
#	132690
#	154497
#	166510
#	184595
#
# Disc length: 2650 seconds
#
# Revision: 4
# Processed by: cddbd v1.5.1PL0 Copyright (c) Steve Scherf et al.
# Submitted via: OrangeCD 5.2
#
DISCID=930a580c
DTITLE=Hellbillies - Pela stein
DYEAR=1993
DGENRE=Country
TTITLE0=Håvard drøymer
TTITLE1=Ei krasafaren steinbu
TTITLE2=Pela stein
TTITLE3=Som eit lauv i eit vindkast
TTITLE4=Bibel i skuffen
TTITLE5=Syver i Armod-bråta
TTITLE6=Gamle Bry'n
TTITLE7=Slå hån
TTITLE8=I mårgo har eg fri
TTITLE9=Fanatiker-vals
TTITLE10=Skomakar
TTITLE11=Teleterror
EXTD=
EXTT0=
EXTT1=
EXTT2=
EXTT3=
EXTT4=
EXTT5=
EXTT6=
EXTT7=
EXTT8=
EXTT9=
EXTT10=
EXTT11=
PLAYORDER=
